# Blender v3.1.2 OBJ File: 'plane_dev_art.blend'
# www.blender.org
mtllib plane_dev_art.mtl
o Cube
v 5.982797 0.467708 -0.457169
v 5.982797 -0.467708 -0.457169
v 5.982797 0.467708 0.457169
v 5.982797 -0.467708 0.457169
v -5.982797 0.467708 -0.851747
v -5.982797 -0.467708 -0.851747
v -5.982797 0.467708 0.851747
v -5.982797 -0.467708 0.851747
v -6.914915 -0.467708 0.000000
v 0.000000 -0.467708 -0.851747
v 5.982797 0.000000 -0.457169
v -5.982797 0.000000 0.851747
v 5.982797 0.000000 0.457169
v -5.982797 0.000000 -0.851747
v 0.000000 0.467708 0.851747
v 5.982797 0.467708 0.000000
v 0.000000 -0.467708 0.851747
v -6.914915 0.467708 0.000000
v 0.000000 0.467708 -0.851747
v 5.982797 -0.467708 0.000000
v 0.000000 0.000000 -0.851747
v 5.982797 0.000000 0.000000
v 0.000000 -0.467708 0.000000
v -6.914915 0.000000 0.000000
v 0.000000 0.000000 0.851747
v 0.000000 0.467708 0.000000
vt 0.750000 0.625000
vt 0.875000 0.625000
vt 0.875000 0.750000
vt 0.750000 0.750000
vt 0.500000 0.875000
vt 0.625000 0.875000
vt 0.625000 1.000000
vt 0.500000 1.000000
vt 0.500000 0.125000
vt 0.625000 0.125000
vt 0.625000 0.250000
vt 0.500000 0.250000
vt 0.250000 0.625000
vt 0.375000 0.625000
vt 0.375000 0.750000
vt 0.250000 0.750000
vt 0.500000 0.625000
vt 0.625000 0.625000
vt 0.625000 0.750000
vt 0.500000 0.750000
vt 0.500000 0.375000
vt 0.625000 0.375000
vt 0.625000 0.500000
vt 0.500000 0.500000
vt 0.375000 0.375000
vt 0.375000 0.500000
vt 0.375000 0.250000
vt 0.125000 0.625000
vt 0.125000 0.750000
vt 0.125000 0.500000
vt 0.250000 0.500000
vt 0.375000 0.125000
vt 0.375000 0.000000
vt 0.500000 0.000000
vt 0.625000 0.000000
vt 0.375000 0.875000
vt 0.375000 1.000000
vt 0.750000 0.500000
vt 0.875000 0.500000
vn 0.0000 1.0000 0.0000
vn 0.0000 0.0000 1.0000
vn -0.6746 0.0000 -0.7382
vn -0.0000 -1.0000 0.0000
vn 1.0000 0.0000 0.0000
vn 0.0658 0.0000 -0.9978
vn 0.0000 0.0000 -1.0000
vn -0.6746 0.0000 0.7382
vn 0.0658 0.0000 0.9978
usemtl Material
s off
f 26/1/1 18/2/1 7/3/1 15/4/1
f 25/5/2 15/6/2 7/7/2 12/8/2
f 24/9/3 18/10/3 5/11/3 14/12/3
f 23/13/4 20/14/4 4/15/4 17/16/4
f 22/17/5 16/18/5 3/19/5 13/20/5
f 21/21/6 19/22/6 1/23/6 11/24/6
f 10/25/6 21/21/6 11/24/6 2/26/6
f 6/27/7 14/12/7 21/21/7 10/25/7
f 14/12/7 5/11/7 19/22/7 21/21/7
f 20/14/5 22/17/5 13/20/5 4/15/5
f 2/26/5 11/24/5 22/17/5 20/14/5
f 11/24/5 1/23/5 16/18/5 22/17/5
f 9/28/4 23/13/4 17/16/4 8/29/4
f 6/30/4 10/31/4 23/13/4 9/28/4
f 10/31/4 2/26/4 20/14/4 23/13/4
f 9/32/3 24/9/3 14/12/3 6/27/3
f 8/33/8 12/34/8 24/9/8 9/32/8
f 12/34/8 7/35/8 18/10/8 24/9/8
f 17/36/2 25/5/2 12/8/2 8/37/2
f 4/15/9 13/20/9 25/5/9 17/36/9
f 13/20/9 3/19/9 15/6/9 25/5/9
f 16/18/1 26/1/1 15/4/1 3/19/1
f 1/23/1 19/38/1 26/1/1 16/18/1
f 19/38/1 5/39/1 18/2/1 26/1/1
o Cube.001
v -2.246944 0.218573 -5.857384
v -2.246944 -0.110590 -5.857384
v 0.076104 0.218573 -5.857384
v 0.076104 -0.110590 -5.857384
v -2.246945 0.218573 6.108211
v -2.246945 -0.110590 6.108211
v 0.076103 0.218573 6.108211
v 0.076103 -0.110590 6.108211
v -1.361357 -0.110590 6.108211
v -2.798815 -0.110590 0.125414
v -2.246944 0.053992 -5.857384
v 0.076103 0.053992 6.108211
v 0.076104 0.053992 -5.857384
v -2.246945 0.053992 6.108211
v 0.076103 0.218573 0.125414
v -1.361356 0.218573 -5.857384
v 0.076103 -0.110590 0.125414
v -1.361357 0.218573 6.108211
v -2.798815 0.218573 0.125414
v -1.361356 -0.110590 -5.857384
v -2.798815 0.053992 0.125414
v -1.361356 0.053992 -5.857384
v -1.361356 -0.110590 0.125414
v -1.361357 0.053992 6.108211
v 0.076103 0.053992 0.125414
v -1.361356 0.218573 0.125414
vt 0.750000 0.625000
vt 0.875000 0.625000
vt 0.875000 0.750000
vt 0.750000 0.750000
vt 0.500000 0.875000
vt 0.625000 0.875000
vt 0.625000 1.000000
vt 0.500000 1.000000
vt 0.500000 0.125000
vt 0.625000 0.125000
vt 0.625000 0.250000
vt 0.500000 0.250000
vt 0.250000 0.625000
vt 0.375000 0.625000
vt 0.375000 0.750000
vt 0.250000 0.750000
vt 0.500000 0.625000
vt 0.625000 0.625000
vt 0.625000 0.750000
vt 0.500000 0.750000
vt 0.500000 0.375000
vt 0.625000 0.375000
vt 0.625000 0.500000
vt 0.500000 0.500000
vt 0.375000 0.375000
vt 0.375000 0.500000
vt 0.375000 0.250000
vt 0.125000 0.625000
vt 0.125000 0.750000
vt 0.125000 0.500000
vt 0.250000 0.500000
vt 0.375000 0.125000
vt 0.375000 0.000000
vt 0.500000 0.000000
vt 0.625000 0.000000
vt 0.375000 0.875000
vt 0.375000 1.000000
vt 0.750000 0.500000
vt 0.875000 0.500000
vn 0.0000 1.0000 -0.0000
vn 1.0000 0.0000 0.0000
vn 0.0000 0.0000 1.0000
vn 0.0000 -1.0000 0.0000
vn 0.0000 0.0000 -1.0000
vn -0.9958 0.0000 -0.0919
vn -0.9958 0.0000 0.0919
usemtl Material.001
s off
f 52/40/10 44/41/10 33/42/10 41/43/10
f 51/44/11 41/45/11 33/46/11 38/47/11
f 50/48/12 44/49/12 31/50/12 40/51/12
f 49/52/13 46/53/13 30/54/13 43/55/13
f 48/56/14 42/57/14 29/58/14 39/59/14
f 47/60/15 45/61/15 27/62/15 37/63/15
f 36/64/15 47/60/15 37/63/15 28/65/15
f 32/66/16 40/51/16 47/60/16 36/64/16
f 40/51/16 31/50/16 45/61/16 47/60/16
f 46/53/14 48/56/14 39/59/14 30/54/14
f 28/65/14 37/63/14 48/56/14 46/53/14
f 37/63/14 27/62/14 42/57/14 48/56/14
f 35/67/13 49/52/13 43/55/13 34/68/13
f 32/69/13 36/70/13 49/52/13 35/67/13
f 36/70/13 28/65/13 46/53/13 49/52/13
f 35/71/12 50/48/12 40/51/12 32/66/12
f 34/72/12 38/73/12 50/48/12 35/71/12
f 38/73/12 33/74/12 44/49/12 50/48/12
f 43/75/11 51/44/11 38/47/11 34/76/11
f 30/54/11 39/59/11 51/44/11 43/75/11
f 39/59/11 29/58/11 41/45/11 51/44/11
f 42/57/10 52/40/10 41/43/10 29/58/10
f 27/62/10 45/77/10 52/40/10 42/57/10
f 45/77/10 31/78/10 44/41/10 52/40/10
o Cube.002
v 3.948366 -0.038074 0.155340
v 4.491905 1.572062 0.155340
v 3.948366 -0.038074 -0.155340
v 4.491905 1.572062 -0.155340
v 5.860468 -0.038074 0.155340
v 5.860468 1.874029 0.155340
v 5.860468 -0.038074 -0.155340
v 5.860468 1.874029 -0.155340
vt 0.375000 0.000000
vt 0.625000 0.000000
vt 0.625000 0.250000
vt 0.375000 0.250000
vt 0.625000 0.500000
vt 0.375000 0.500000
vt 0.625000 0.750000
vt 0.375000 0.750000
vt 0.625000 1.000000
vt 0.375000 1.000000
vt 0.125000 0.500000
vt 0.125000 0.750000
vt 0.875000 0.500000
vt 0.875000 0.750000
vn -0.9475 0.3198 0.0000
vn 0.0000 -0.0000 -1.0000
vn 1.0000 0.0000 0.0000
vn 0.0000 0.0000 1.0000
vn 0.0000 -1.0000 0.0000
vn -0.2155 0.9765 0.0000
usemtl None
s off
f 53/79/17 54/80/17 56/81/17 55/82/17
f 55/82/18 56/81/18 60/83/18 59/84/18
f 59/84/19 60/83/19 58/85/19 57/86/19
f 57/86/20 58/85/20 54/87/20 53/88/20
f 55/89/21 59/84/21 57/86/21 53/90/21
f 60/83/22 56/91/22 54/92/22 58/85/22
